<svg width="47" height="47" viewBox="0 0 47 47" fill="none" xmlns="http://www.w3.org/2000/svg">
<path d="M7.73462 19.2642C7.73462 11.9992 7.73462 8.36674 10 6.10978C12.2655 3.85284 15.9116 3.85284 23.2039 3.85284C30.4961 3.85284 34.1424 3.85284 36.4077 6.10978C38.6732 8.36674 38.6732 11.9992 38.6732 19.2642V25.0435C38.6732 32.3084 38.6732 35.9411 36.4077 38.1979C34.1424 40.4549 30.4961 40.4549 23.2039 40.4549C15.9116 40.4549 12.2655 40.4549 10 38.1979C7.73462 35.9411 7.73462 32.3084 7.73462 25.0435V19.2642Z" stroke="white" stroke-width="2.80026"/>
<path d="M32.8722 40.4548V42.3813H30.9385V40.4548M15.4692 40.4548V42.3813H13.5356V40.4548" stroke="white" stroke-width="2.80026" stroke-linejoin="round"/>
<path d="M38.6732 22.1539H7.73462" stroke="white" stroke-width="2.80026"/>
<path d="M32.8723 13.4849V17.3378" stroke="white" stroke-width="2.80026" stroke-linecap="round"/>
<path d="M32.8723 26.9699V30.8228" stroke="white" stroke-width="2.80026" stroke-linecap="round"/>
</svg>
