<svg width="41" height="41" viewBox="0 0 41 41" fill="none" xmlns="http://www.w3.org/2000/svg">
<path fill-rule="evenodd" clip-rule="evenodd" d="M20.5 0C9.17795 0 0 9.17831 0 20.4997C0 31.8216 9.17795 41 20.5 41C31.8213 41 41 31.8218 41 20.4997C41 9.17831 31.8213 0 20.5 0ZM20.7395 32.4898C14.1318 32.4898 8.77986 27.1242 8.77986 20.4998C8.77986 13.8756 14.1318 8.51008 20.7395 8.51008C23.9688 8.51008 26.6666 9.70151 28.7376 11.635L25.3658 15.0147V15.007C24.1104 13.808 22.5184 13.1937 20.7395 13.1937C16.7929 13.1937 13.5863 16.5357 13.5863 20.4927C13.5863 24.4486 16.793 27.7989 20.7395 27.7989C24.32 27.7989 26.7564 25.7456 27.2578 22.9281H20.7395V18.2518H31.9885C32.1382 19.0534 32.22 19.8929 32.22 20.7696C32.22 27.619 27.6461 32.4898 20.7395 32.4898V32.4898Z" fill="#685E3C"/>
</svg>
