<svg width="262" height="302" viewBox="0 0 262 302" fill="none" xmlns="http://www.w3.org/2000/svg">
<path d="M254.546 123.453C247.713 105.94 236.828 92.3747 223.04 84.117C219.86 90.2303 216.066 96.0041 211.716 101.349C211.741 101.363 211.766 101.376 211.79 101.39C232.322 113.19 244.264 143.346 240.83 174.725C235.141 226.711 219.352 262.34 196.369 275.048C181.428 283.309 162.794 282.132 140.983 271.555L138.853 270.524H123.146L121.016 271.555C99.205 282.133 80.5715 283.309 65.6302 275.048C42.6482 262.34 26.86 226.711 21.1694 174.725C17.7355 143.346 29.6776 113.189 50.209 101.39C56.8226 97.6123 64.3225 95.6634 71.9383 95.7429C87.487 95.7429 105.406 103.027 124.877 117.418L125.571 117.933C125.571 117.933 153.64 114.521 164.759 109.472C198.262 94.2623 205.655 70.0864 206.966 66.8031C210.831 57.2115 212.762 46.9508 212.649 36.6105C212.536 26.2702 210.381 16.0541 206.308 6.54906L203.685 0L196.634 0.0708428C185.483 0.193047 174.484 2.67252 164.359 7.34646C154.235 12.0204 145.213 18.7831 137.887 27.1905C130.561 35.5979 125.096 45.4599 121.851 56.1289C118.606 66.7979 117.654 78.0326 119.059 89.0953C106.887 82.2751 95.051 77.926 83.7124 76.1247C67.6485 73.5712 52.921 76.0603 39.9395 83.522C25.6821 91.7165 14.4484 105.524 7.45368 123.451C1.09461 139.75 -1.31017 158.755 0.682431 176.966C7.21411 236.654 26.2237 276.807 55.6568 293.083C65.3279 298.449 76.2187 301.231 87.2783 301.161C99.8915 301.161 113.444 297.816 127.836 291.13H134.166C161.469 303.813 185.743 304.473 206.343 293.083C235.774 276.808 254.787 236.656 261.318 176.966C263.31 158.756 260.905 139.751 254.546 123.453ZM174.432 25.4183C179.302 23.3217 184.436 21.8995 189.691 21.1909C192.025 29.2638 192.592 37.745 191.354 46.0568C190.115 54.3686 187.099 62.3158 182.512 69.3569C177.924 76.3981 171.873 82.3678 164.771 86.8595C157.668 91.3511 149.681 94.2591 141.353 95.3855C137.4 81.6952 138.579 67.0328 144.67 54.1504C150.76 41.268 161.343 31.0514 174.432 25.4183V25.4183Z" fill="#9E9E7E"/>
</svg>
